<svg width="41" height="40" viewBox="0 0 41 40" fill="none" xmlns="http://www.w3.org/2000/svg">
<path d="M7.16536 33.3337C6.2487 33.3337 5.46398 33.0073 4.8112 32.3545C4.15842 31.7017 3.83203 30.917 3.83203 30.0003V10.0003C3.83203 9.08366 4.15842 8.29894 4.8112 7.64616C5.46398 6.99338 6.2487 6.66699 7.16536 6.66699H33.832C34.7487 6.66699 35.5334 6.99338 36.1862 7.64616C36.839 8.29894 37.1654 9.08366 37.1654 10.0003V30.0003C37.1654 30.917 36.839 31.7017 36.1862 32.3545C35.5334 33.0073 34.7487 33.3337 33.832 33.3337H7.16536ZM20.4987 21.667L7.16536 13.3337V30.0003H33.832V13.3337L20.4987 21.667ZM20.4987 18.3337L33.832 10.0003H7.16536L20.4987 18.3337ZM7.16536 13.3337V10.0003V30.0003V13.3337Z" fill="white"/>
</svg>
