<svg width="304" height="64" viewBox="0 0 304 64" fill="none" xmlns="http://www.w3.org/2000/svg">
<g clip-path="url(#clip0_5089_23823)">
<mask id="mask0_5089_23823" style="mask-type:luminance" maskUnits="userSpaceOnUse" x="0" y="0" width="304" height="64">
<path d="M303.364 0H0V64H303.364V0Z" fill="white"/>
</mask>
<g mask="url(#mask0_5089_23823)">
<path d="M15.167 25.8317C15.167 29.3449 12.3193 32.1926 8.80617 32.1926C5.29302 32.1926 2.44531 29.3449 2.44531 25.8317C2.44531 22.3186 5.29302 19.4709 8.80617 19.4709C12.3193 19.4709 15.167 22.3186 15.167 25.8317ZM8.80617 48.8287C5.29302 48.8287 2.44531 51.6764 2.44531 55.1895C2.44531 58.7027 5.29302 61.5504 8.80617 61.5504C12.3193 61.5504 15.167 58.7027 15.167 55.1895C15.167 51.6764 12.3193 48.8287 8.80617 48.8287ZM8.80617 34.1498C5.29302 34.1498 2.44531 36.9975 2.44531 40.5106C2.44531 44.0238 5.29302 46.8715 8.80617 46.8715C12.3193 46.8715 15.167 44.0238 15.167 40.5106C15.167 36.9975 12.3193 34.1498 8.80617 34.1498ZM46.9713 19.4709C42.3758 19.4709 38.161 21.0953 34.8671 23.8002C31.8413 21.1071 27.8545 19.4709 23.4851 19.4709C19.9719 19.4709 17.1242 22.3186 17.1242 25.8317C17.1242 29.3449 19.9719 32.1926 23.4851 32.1926C25.9169 32.1926 27.8887 34.1644 27.8887 36.5962V55.1895C27.8887 58.7027 30.7364 61.5504 34.2496 61.5504C37.7627 61.5504 40.6105 58.7027 40.6105 55.1895V38.5534C40.6105 35.0403 43.4582 32.1926 46.9713 32.1926C50.4845 32.1926 53.3322 35.0403 53.3322 38.5534V55.1895C53.3322 58.7027 56.1799 61.5504 59.693 61.5504C63.2062 61.5504 66.0539 58.7027 66.0539 55.1895V38.5534C66.0539 28.014 57.5108 19.4709 46.9713 19.4709ZM108.459 25.7211C112.424 29.6854 114.607 34.9561 114.607 40.5625C114.607 46.1688 112.424 51.4396 108.459 55.4038C104.495 59.3681 99.2243 61.5514 93.6179 61.5514C88.0116 61.5514 82.7409 59.3681 78.7766 55.4038C74.8123 51.4396 72.6291 46.1688 72.6291 40.5625C72.6291 34.9561 74.8123 29.6854 78.7766 25.7211C82.7409 21.7569 88.0116 19.5736 93.6179 19.5736C99.2243 19.5736 104.495 21.7569 108.459 25.7211ZM101.885 40.5625C101.885 36.0042 98.1762 32.2953 93.6179 32.2953C89.0596 32.2953 85.3517 36.0042 85.3517 40.5625C85.3517 45.1208 89.0606 48.8296 93.6179 48.8296C98.1752 48.8296 101.885 45.1208 101.885 40.5625ZM157.013 25.7211C160.977 29.6854 163.161 34.9561 163.161 40.5625C163.161 46.1688 160.977 51.4396 157.013 55.4038C153.049 59.3681 147.778 61.5514 142.172 61.5514C136.565 61.5514 131.295 59.3681 127.33 55.4038C123.366 51.4396 121.183 46.1688 121.183 40.5625C121.183 34.9561 123.366 29.6854 127.33 25.7211C131.295 21.7569 136.565 19.5736 142.172 19.5736C147.778 19.5736 153.049 21.7569 157.013 25.7211ZM150.439 40.5625C150.439 36.0042 146.73 32.2953 142.173 32.2953C137.615 32.2953 133.906 36.0042 133.906 40.5625C133.906 45.1208 137.614 48.8296 142.173 48.8296C146.731 48.8296 150.439 45.1208 150.439 40.5625ZM211.211 23.4156C210.214 21.063 207.908 19.5345 205.353 19.5345H176.098C172.585 19.5345 169.737 22.3822 169.737 25.8953C169.737 29.4085 172.585 32.2562 176.098 32.2562H190.327L172.387 50.7633C170.609 52.5982 170.101 55.3177 171.096 57.6703C172.092 60.0228 174.399 61.5514 176.954 61.5514H205.352C208.865 61.5514 211.713 58.7036 211.713 55.1905C211.713 51.6773 208.865 48.8296 205.352 48.8296H191.978L209.919 30.3225C211.697 28.4886 212.205 25.7681 211.21 23.4156H211.211ZM224.652 48.8296C221.138 48.8296 218.291 51.6773 218.291 55.1905C218.291 58.7036 221.138 61.5514 224.652 61.5514C228.165 61.5514 231.012 58.7036 231.012 55.1905C231.012 51.6773 228.165 48.8296 224.652 48.8296ZM294.558 15.1748C298.072 15.1748 300.919 12.3271 300.919 8.81398C300.919 5.30083 298.072 2.45312 294.558 2.45312C291.045 2.45312 288.198 5.30083 288.198 8.81398C288.198 12.3271 291.045 15.1748 294.558 15.1748ZM294.558 19.5364C291.045 19.5364 288.198 22.3841 288.198 25.8973V55.1905C288.198 58.7036 291.045 61.5514 294.558 61.5514C298.072 61.5514 300.919 58.7036 300.919 55.1905V25.8963C300.919 22.3832 298.072 19.5354 294.558 19.5354V19.5364ZM279.664 25.8973V55.1905C279.664 58.7036 276.816 61.5514 273.303 61.5514C271.284 61.5514 269.487 60.6099 268.321 59.143C265.351 60.7039 262.028 61.5318 258.577 61.5318C252.971 61.5318 247.7 59.3485 243.736 55.3843C239.772 51.42 237.589 46.1493 237.589 40.5429C237.589 34.9366 239.772 29.6658 243.736 25.7016C247.7 21.7373 252.971 19.554 258.577 19.554C262.028 19.554 265.351 20.3819 268.321 21.9428C269.487 20.4759 271.284 19.5345 273.303 19.5345C276.816 19.5345 279.664 22.3822 279.664 25.8953V25.8973ZM266.845 40.5439C266.845 35.9856 263.136 32.2767 258.578 32.2767C254.021 32.2767 250.311 35.9856 250.311 40.5439C250.311 45.1022 254.02 48.8101 258.578 48.8101C263.137 48.8101 266.845 45.1012 266.845 40.5439Z" fill="white"/>
</g>
</g>
<defs>
<clipPath id="clip0_5089_23823">
<rect width="303.364" height="64" fill="white"/>
</clipPath>
</defs>
</svg>
